<svg width="332" height="105" viewBox="0 0 332 105" fill="none" xmlns="http://www.w3.org/2000/svg">
<path d="M34.068 45.084C34.408 43.724 34.578 42.194 34.578 40.494C34.578 38.726 34.068 36.924 33.048 35.088C31.552 32.096 29.274 30.6 26.214 30.6C18.054 30.6 13.974 38.284 13.974 53.652C13.974 68.952 18.156 76.602 26.52 76.602C32.844 76.602 37.91 73.542 41.718 67.422C43.214 67.898 43.962 68.646 43.962 69.666C43.962 70.618 43.316 71.842 42.024 73.338C40.8 74.766 38.624 76.16 35.496 77.52C32.436 78.812 28.9 79.458 24.888 79.458C17.204 79.458 11.118 77.112 6.63 72.42C2.21 67.66 0 61.336 0 53.448C0 45.492 2.312 39.168 6.936 34.476C11.56 29.784 18.054 27.438 26.418 27.438C29.002 27.438 31.552 27.778 34.068 28.458C36.584 29.07 38.964 30.43 41.208 32.538C43.452 34.646 44.574 37.196 44.574 40.188C44.574 43.112 43.248 45.016 40.596 45.9C39.644 46.24 38.59 46.41 37.434 46.41C36.278 46.41 35.156 45.968 34.068 45.084Z" fill="#D9381E"/>
<path d="M66.9925 40.596C68.1485 36.924 70.2565 33.796 73.3165 31.212C76.4445 28.628 79.2665 27.336 81.7825 27.336C84.3665 27.336 86.1005 27.982 86.9845 29.274C87.8685 30.498 88.3105 31.518 88.3105 32.334C88.3105 35.122 87.2905 37.128 85.2505 38.352C83.8905 37.264 81.8505 36.72 79.1305 36.72C76.4785 36.72 73.8265 37.57 71.1745 39.27C68.5225 40.902 67.1965 42.704 67.1965 44.676V75.378L76.3765 75.99V78.336H47.9185V75.99L54.6505 75.48V31.926L46.3885 31.518V29.172L67.1965 28.05L66.5845 40.596H66.9925Z" fill="#D9381E"/>
<path d="M121.829 42.738C121.829 34.442 118.939 30.294 113.159 30.294C107.107 30.294 103.435 35.598 102.143 46.206H121.625C121.761 44.846 121.829 43.69 121.829 42.738ZM112.241 79.458C104.965 79.458 99.0494 77.078 94.4934 72.318C90.0054 67.558 87.7614 61.268 87.7614 53.448C87.7614 45.628 90.1074 39.338 94.7994 34.578C99.5594 29.818 105.577 27.438 112.853 27.438C120.129 27.438 125.569 29.002 129.173 32.13C132.777 35.19 134.579 39.474 134.579 44.982C134.579 46.546 134.443 48.178 134.171 49.878H101.837V53.448C101.837 61.064 102.789 66.844 104.693 70.788C106.597 74.664 109.453 76.602 113.261 76.602C117.137 76.602 120.639 75.82 123.767 74.256C126.963 72.624 129.445 70.346 131.213 67.422C132.709 67.898 133.457 68.612 133.457 69.564C133.457 71.264 131.859 73.236 128.663 75.48C127.099 76.568 124.855 77.52 121.931 78.336C119.075 79.084 115.845 79.458 112.241 79.458Z" fill="#D9381E"/>
<path d="M168.049 54.468C160.161 54.468 155.197 56.542 153.157 60.69C152.273 62.458 151.831 64.668 151.831 67.32C151.831 71.876 153.395 74.528 156.523 75.276C156.999 75.412 157.509 75.48 158.053 75.48C160.229 75.48 162.405 74.358 164.581 72.114C166.757 69.802 167.913 66.844 168.049 63.24V54.468ZM151.729 44.472C150.233 45.492 148.669 46.002 147.037 46.002C145.405 46.002 144.011 45.458 142.855 44.37C141.699 43.282 141.121 41.684 141.121 39.576C141.121 37.4 141.767 35.462 143.059 33.762C144.351 32.062 146.017 30.804 148.057 29.988C152.069 28.288 155.877 27.438 159.481 27.438C167.505 27.438 172.979 28.866 175.903 31.722C178.827 34.51 180.289 38.828 180.289 44.676V75.378L188.857 75.99V78.234L169.375 79.458L168.457 70.89C165.261 76.67 159.753 79.56 151.933 79.56C148.397 79.56 145.337 78.506 142.753 76.398C140.237 74.222 138.979 71.196 138.979 67.32C139.047 62.152 141.631 58.276 146.731 55.692C151.831 53.04 158.937 51.714 168.049 51.714V42.942C168.049 38.794 167.471 35.598 166.315 33.354C165.159 31.11 163.017 29.988 159.889 29.988C156.761 29.988 154.415 31.28 152.851 33.864C151.831 35.564 151.321 37.366 151.321 39.27C151.321 41.174 151.457 42.908 151.729 44.472Z" fill="#D9381E"/>
<path d="M211.657 78.336H185.341V75.99L191.971 75.378V5.1L183.199 4.794V2.34599L205.027 0V75.378L211.657 75.99V78.336Z" fill="#D9381E"/>
<path d="M242.854 27.948C245.914 26.792 247.444 23.664 247.444 18.564C247.444 17.204 247.274 15.946 246.934 14.79C248.09 13.974 249.246 13.566 250.402 13.566C251.558 13.566 252.646 13.77 253.666 14.178C256.114 15.198 257.338 16.932 257.338 19.38C257.338 21.76 256.284 23.834 254.176 25.602C252.136 27.37 249.314 28.492 245.71 28.968C249.79 30.328 252.918 32.47 255.094 35.394C257.27 38.25 258.358 41.82 258.358 46.104C258.358 50.32 256.25 54.264 252.034 57.936C247.818 61.54 242.752 63.342 236.836 63.342C230.92 63.342 227.962 64.94 227.962 68.136C227.962 69.7 229.05 70.788 231.226 71.4C233.47 71.944 237.856 72.522 244.384 73.134C250.912 73.678 255.842 74.902 259.174 76.806C262.506 78.642 264.172 81.6 264.172 85.68C264.172 90.984 261.554 95.506 256.318 99.246C251.15 102.986 244.384 104.856 236.02 104.856C227.724 104.856 221.604 103.564 217.66 100.98C213.716 98.464 211.744 95.098 211.744 90.882C211.744 88.162 212.73 85.544 214.702 83.028C216.674 80.512 219.564 78.744 223.372 77.724C218.612 75.956 216.232 73.474 216.232 70.278C216.232 68.034 217.388 66.198 219.7 64.77C222.012 63.342 224.596 62.594 227.452 62.526C222.896 61.302 219.36 59.194 216.844 56.202C214.396 53.142 213.172 49.572 213.172 45.492C213.172 40.256 215.246 35.938 219.394 32.538C223.542 29.138 229.118 27.438 236.122 27.438C238.57 27.438 240.814 27.608 242.854 27.948ZM222.658 89.76C222.658 93.5 223.78 96.39 226.024 98.43C228.268 100.538 231.634 101.592 236.122 101.592C240.678 101.592 244.622 100.402 247.954 98.022C251.354 95.642 253.054 92.82 253.054 89.556C253.122 86.292 252.204 84.184 250.3 83.232C248.464 82.28 245.132 81.498 240.304 80.886L239.08 80.784C233.708 80.104 229.968 79.594 227.86 79.254C226.364 80.07 225.106 81.464 224.086 83.436C223.134 85.408 222.658 87.516 222.658 89.76ZM235.408 61.302C238.604 61.302 240.984 59.84 242.548 56.916C244.112 53.992 244.894 50.184 244.894 45.492C244.894 34.952 241.97 29.682 236.122 29.682C232.926 29.682 230.546 31.11 228.982 33.966C227.418 36.754 226.636 40.596 226.636 45.492C226.636 56.032 229.56 61.302 235.408 61.302Z" fill="#D9381E"/>
<path d="M308.672 72.114C303.912 77.01 297.418 79.458 289.19 79.458C280.962 79.458 274.468 77.01 269.708 72.114C264.948 67.218 262.568 60.996 262.568 53.448C262.568 45.9 264.948 39.678 269.708 34.782C274.468 29.886 280.962 27.438 289.19 27.438C297.418 27.438 303.912 29.886 308.672 34.782C313.432 39.678 315.812 45.9 315.812 53.448C315.812 60.996 313.432 67.218 308.672 72.114ZM276.746 53.448C276.746 69.156 280.894 77.01 289.19 77.01C297.486 77.01 301.634 69.156 301.634 53.448C301.634 45.764 300.716 39.95 298.88 36.006C297.044 31.994 293.814 29.988 289.19 29.988C284.566 29.988 281.336 31.994 279.5 36.006C277.664 39.95 276.746 45.764 276.746 53.448Z" fill="#D9381E"/>
<path d="M316.752 9.664V18.672H314.32V9.664H311.296V7.504H319.776V9.664H316.752Z" fill="#D9381E"/>
<path d="M329.312 11.344H329.264L328.448 12.976L326.272 16.928L324.144 12.992L323.296 11.232H323.248V18.672H320.96V7.504H323.536L326.272 12.736H326.304L329.008 7.504H331.6V18.672H329.312V11.344Z" fill="#D9381E"/>
</svg>
